<svg width="119" height="119" viewBox="0 0 119 119" fill="none" xmlns="http://www.w3.org/2000/svg">
<circle cx="59.5" cy="59.5" r="59.5" fill="#007ACC"/>
<path d="M26.806 39V27.813H23.188V26.4H31.9V27.813H28.282V39H26.806ZM38.7258 39.216C38.0718 39.216 37.4778 39.093 36.9438 38.847C36.4098 38.601 35.9538 38.274 35.5758 37.866C35.1978 37.452 34.9248 36.993 34.7568 36.489L36.1338 35.985C36.3618 36.537 36.7068 36.987 37.1688 37.335C37.6308 37.683 38.1648 37.857 38.7708 37.857C39.4428 37.857 39.9738 37.674 40.3638 37.308C40.7598 36.942 40.9578 36.411 40.9578 35.715C40.9578 35.241 40.8378 34.833 40.5978 34.491C40.3638 34.143 40.0548 33.843 39.6708 33.591C39.2868 33.339 38.8758 33.117 38.4378 32.925C38.0478 32.757 37.6548 32.568 37.2588 32.358C36.8688 32.148 36.5118 31.899 36.1878 31.611C35.8698 31.323 35.6118 30.984 35.4138 30.594C35.2218 30.198 35.1258 29.739 35.1258 29.217C35.1258 28.665 35.2638 28.161 35.5398 27.705C35.8158 27.243 36.2118 26.874 36.7278 26.598C37.2438 26.322 37.8618 26.184 38.5818 26.184C39.4398 26.184 40.1628 26.391 40.7508 26.805C41.3388 27.213 41.7168 27.729 41.8848 28.353L40.5258 28.812C40.3818 28.464 40.1418 28.164 39.8058 27.912C39.4698 27.66 39.0438 27.534 38.5278 27.534C37.9518 27.534 37.4928 27.684 37.1508 27.984C36.8088 28.284 36.6378 28.686 36.6378 29.19C36.6378 29.592 36.7518 29.934 36.9798 30.216C37.2078 30.498 37.5108 30.747 37.8888 30.963C38.2668 31.173 38.6838 31.38 39.1398 31.584C39.5238 31.758 39.9108 31.959 40.3008 32.187C40.6908 32.415 41.0508 32.688 41.3808 33.006C41.7108 33.324 41.9748 33.702 42.1728 34.14C42.3708 34.572 42.4698 35.079 42.4698 35.661C42.4698 36.417 42.3048 37.059 41.9748 37.587C41.6508 38.115 41.2068 38.52 40.6428 38.802C40.0788 39.078 39.4398 39.216 38.7258 39.216Z" fill="white"/>
<circle cx="71.5" cy="66.5" r="28.5" fill="#F7DF1E"/>
<path d="M66.123 70.168C65.3997 70.168 64.814 70.014 64.366 69.706C63.9227 69.3933 63.5867 68.9617 63.358 68.411L64.296 67.921C64.4173 68.1777 64.548 68.3947 64.688 68.572C64.8327 68.7447 65.017 68.8777 65.241 68.971C65.465 69.0643 65.7637 69.111 66.137 69.111C66.4403 69.111 66.7367 69.048 67.026 68.922C67.3153 68.7913 67.5533 68.5697 67.74 68.257C67.9267 67.9397 68.02 67.501 68.02 66.941V60.2H69.168V66.836C69.168 67.508 69.0723 68.061 68.881 68.495C68.6943 68.929 68.447 69.2673 68.139 69.51C67.8357 69.7527 67.5067 69.923 67.152 70.021C66.7973 70.119 66.4543 70.168 66.123 70.168ZM75.009 70.168C74.5003 70.168 74.0383 70.0723 73.623 69.881C73.2076 69.6897 72.853 69.4353 72.559 69.118C72.265 68.796 72.0526 68.439 71.922 68.047L72.993 67.655C73.1703 68.0843 73.4386 68.4343 73.798 68.705C74.1573 68.9757 74.5726 69.111 75.044 69.111C75.5666 69.111 75.9796 68.9687 76.283 68.684C76.591 68.3993 76.745 67.9863 76.745 67.445C76.745 67.0763 76.6516 66.759 76.465 66.493C76.283 66.2223 76.0426 65.989 75.744 65.793C75.4453 65.597 75.1256 65.4243 74.785 65.275C74.4816 65.1443 74.176 64.9973 73.868 64.834C73.5646 64.6707 73.287 64.477 73.035 64.253C72.7876 64.029 72.587 63.7653 72.433 63.462C72.2836 63.154 72.209 62.797 72.209 62.391C72.209 61.9617 72.3163 61.5697 72.531 61.215C72.7456 60.8557 73.0536 60.5687 73.455 60.354C73.8563 60.1393 74.337 60.032 74.897 60.032C75.5643 60.032 76.1266 60.193 76.584 60.515C77.0413 60.8323 77.3353 61.2337 77.466 61.719L76.409 62.076C76.297 61.8053 76.1103 61.572 75.849 61.376C75.5876 61.18 75.2563 61.082 74.855 61.082C74.407 61.082 74.05 61.1987 73.784 61.432C73.518 61.6653 73.385 61.978 73.385 62.37C73.385 62.6827 73.4736 62.9487 73.651 63.168C73.8283 63.3873 74.064 63.581 74.358 63.749C74.652 63.9123 74.9763 64.0733 75.331 64.232C75.6296 64.3673 75.9306 64.5237 76.234 64.701C76.5373 64.8783 76.8173 65.0907 77.074 65.338C77.3306 65.5853 77.536 65.8793 77.69 66.22C77.844 66.556 77.921 66.9503 77.921 67.403C77.921 67.991 77.7926 68.4903 77.536 68.901C77.284 69.3117 76.9386 69.6267 76.5 69.846C76.0613 70.0607 75.5643 70.168 75.009 70.168Z" fill="black"/>
</svg>
